<?xml version="1.0" standalone="no"?><!DOCTYPE svg PUBLIC "-//W3C//DTD SVG 1.1//EN" "http://www.w3.org/Graphics/SVG/1.1/DTD/svg11.dtd"><svg t="1537215015846" class="icon" style="" viewBox="0 0 1024 1024" version="1.1" xmlns="http://www.w3.org/2000/svg" p-id="879" xmlns:xlink="http://www.w3.org/1999/xlink" width="200" height="200"><defs><style type="text/css"></style></defs><path d="M514.260483 52.931536c-25.75457 0-49.233308 14.992459-60.185754 38.452777l-83.440387 178.820712c-12.936637 27.723412-39.023782 47.194882-69.49784 51.872415l-190.899818 29.300326c-24.619724 3.789303-45.052079 21.132296-53.007261 44.898583-7.90504 23.792892-1.910513 49.989531 15.471366 67.845201l143.809313 148.269905c20.022009 20.643156 29.098735 49.39806 24.512277 77.659731l-33.45495 206.160383c-4.105504 25.308409 6.482645 50.655703 27.301809 65.469084 11.417027 8.106632 24.848944 12.226462 38.307468 12.226462 11.084453 0 22.140253-2.761903 32.161491-8.312316l164.963099-88.75851c27.414373-14.750959 60.506049-14.751982 87.922469-0.005117l165.012218 88.763626c10.048867 5.52483 21.13025 8.312316 32.158421 8.312316 13.43601 0 26.866904-4.118807 38.33305-12.20395 20.770046-14.786775 31.359218-40.161698 27.226085-65.466014l-33.44881-206.15322c-4.586458-28.26781 4.495384-57.028854 24.526603-77.67201L955.894879 464.148156c17.385972-17.85567 23.354917-44.055378 15.421224-67.844178-7.954159-23.76731-28.387537-41.114396-53.006238-44.899606l-190.858886-29.300326c-30.466895-4.677533-56.548924-24.14184-69.487607-51.856042L574.472843 91.406826C563.572586 67.925019 540.067242 52.931536 514.260483 52.931536L514.260483 52.931536 514.260483 52.931536 514.260483 52.931536zM514.260483 52.931536" p-id="880" fill="#ffffff"></path></svg>